<svg width="300" height="179" viewBox="0 0 300 179" fill="none" xmlns="http://www.w3.org/2000/svg">
<g clip-path="url(#clip0_32_3)">
<rect width="300" height="180" rx="35" fill="#803D99"/>
<path d="M97.6611 127.453C103.079 127.453 105.788 129.473 105.788 133.513V134.867C105.788 137.053 104.814 138.455 102.865 139.073C100.917 139.691 97.376 140 92.2432 140H77.5576L75.918 139.929C59.9017 139.929 50.8005 139.192 48.6143 137.719C46.4281 136.245 45.335 130.946 45.335 121.821V110.558L45.4062 108.918L45.5488 100.791V87.7451L45.6201 84.5371V76.624L45.5488 71.9189C45.5488 70.3506 45.5488 68.7822 45.5488 67.2139L45.4775 62.5088V57.875L45.335 48.5361C45.335 44.639 45.6676 42.1914 46.333 41.1934C47.0459 40.1478 48.6618 39.625 51.1807 39.625C53.6995 39.625 55.6243 40.029 56.9551 40.8369C58.2858 41.5973 59.1888 43.1419 59.6641 45.4707C60.1868 47.7995 60.4482 60.4889 60.4482 83.5391C60.4482 106.589 61.2799 119.825 62.9434 123.247C63.8464 125.101 65.8424 126.312 68.9316 126.883C72.0684 127.453 77.1061 127.738 84.0449 127.738L88.6787 127.667C89.7243 127.619 90.7461 127.596 91.7441 127.596L94.7383 127.453H97.6611Z" fill="white"/>
<path d="M254.083 140.824H196.125C192.798 140.824 190.755 140.515 189.994 139.897C189.281 139.28 188.925 137.711 188.925 135.192V134.337C188.925 131.295 189.4 129.465 190.351 128.848C191.301 128.277 193.654 127.992 197.408 127.992H218.438L219.223 128.063L252.158 127.992C256.15 127.992 258.598 128.23 259.501 128.705C260.451 129.18 260.927 130.606 260.927 132.982V135.406C260.927 137.878 260.451 139.398 259.501 139.969C258.598 140.539 256.792 140.824 254.083 140.824Z" fill="white"/>
<path d="M126.402 137.938C124.074 137.938 122.909 135.966 122.909 132.021V130.81C122.909 127.863 125.143 124.631 129.61 121.114C130.513 120.401 136.383 116.766 147.219 110.207C158.055 103.648 163.473 100.274 163.473 100.084C163.473 99.8939 157.983 96.377 147.005 89.5332C136.026 82.6895 130.062 78.8874 129.111 78.127C125.119 74.8952 123.123 71.3307 123.123 67.4336C123.123 63.5365 124.454 61.5879 127.115 61.5879C127.781 61.5879 130.109 62.7048 134.102 64.9385C151.876 74.9189 166.324 83.9964 177.445 92.1709C180.107 94.1195 181.438 96.7572 181.438 100.084C181.438 103.411 179.917 106.072 176.875 108.068C161.096 118.762 145.84 128.124 131.107 136.156C128.921 137.344 127.353 137.938 126.402 137.938Z" fill="white"/>
</g>
<defs>
<clipPath id="clip0_32_3">
<rect width="300" height="179" fill="white"/>
</clipPath>
</defs>
</svg>
