<svg width="1557" height="289" viewBox="0 0 1557 289" fill="none" xmlns="http://www.w3.org/2000/svg">
<g clip-path="url(#clip0_210_33)">
<path d="M0 190L247 0L0 38V190Z" fill="black"/>
<path d="M300.15 169.013L560.071 110.072L560.384 109.468L559.588 109.589L247 0L300.15 169.013Z" fill="black"/>
<path d="M300.15 169.013L247 0L0 190L300.15 169.013Z" fill="black"/>
<path d="M560.071 110.072L300.15 169.013L559.588 265.729L560.071 110.072Z" fill="black"/>
<path d="M763.95 227.954L560.071 110.072L559.588 265.729L763.95 227.954Z" fill="black"/>
<path d="M763.95 227.954L1044.07 133.216L1044.38 132.613L1043.59 132.733L802.5 67.0735L763.95 227.954Z" fill="black"/>
<path d="M1044.07 133.216L763.95 227.954L1043.59 288.874L1044.07 133.216Z" fill="black"/>
<path d="M1247.95 251.099L1044.07 133.216L1043.59 288.874L1247.95 251.099Z" fill="black"/>
<path d="M1044.07 133.216L1247.95 251.099L1328.15 89.735L1044.38 132.613L1044.07 133.216Z" fill="black"/>
<path d="M1247.95 251.099L1433.5 288.874L1328.15 89.735L1247.95 251.099Z" fill="black"/>
<path d="M1433.5 288.874L1557 190L1328.15 89.735L1433.5 288.874Z" fill="black"/>
<path d="M1328.15 89.735L1557 190V38L1328.15 89.735Z" fill="black"/>
<path d="M560.071 110.072L763.95 227.954L802.5 67.0735L560.384 109.468L560.071 110.072Z" fill="black"/>
<path d="M763.95 227.954L560.071 110.072M763.95 227.954L559.588 265.729M763.95 227.954L1044.07 133.216M763.95 227.954L1043.59 288.874M763.95 227.954L802.5 67.0735M560.071 110.072L300.15 169.013M560.071 110.072L559.588 265.729M560.071 110.072L560.384 109.468M300.15 169.013L559.588 265.729M300.15 169.013L247 0M300.15 169.013L0 190M0 190L247 0M0 190V38L247 0M247 0L559.588 109.589L560.384 109.468M802.5 67.0735L1043.59 132.733L1044.38 132.613M802.5 67.0735L560.384 109.468M1433.5 288.874L1247.95 251.099M1433.5 288.874L1557 190M1433.5 288.874L1328.15 89.735M1247.95 251.099L1044.07 133.216M1247.95 251.099L1328.15 89.735M1247.95 251.099L1043.59 288.874M1044.07 133.216L1043.59 288.874M1044.07 133.216L1044.38 132.613M1328.15 89.735L1557 190M1328.15 89.735L1557 38V190M1328.15 89.735L1044.38 132.613" stroke="white" stroke-width="2.89875"/>
<path d="M299.696 176.392C304.499 176.392 308.392 172.499 308.392 167.696C308.392 162.893 304.499 159 299.696 159C294.893 159 291 162.893 291 167.696C291 172.499 294.893 176.392 299.696 176.392Z" fill="white"/>
<path d="M560.696 120.392C565.499 120.392 569.392 116.499 569.392 111.696C569.392 106.893 565.499 103 560.696 103C555.893 103 552 106.893 552 111.696C552 116.499 555.893 120.392 560.696 120.392Z" fill="white"/>
<path d="M560.696 276.392C565.499 276.392 569.392 272.499 569.392 267.696C569.392 262.893 565.499 259 560.696 259C555.893 259 552 262.893 552 267.696C552 272.499 555.893 276.392 560.696 276.392Z" fill="white"/>
<path d="M802.696 77.3925C807.499 77.3925 811.392 73.4991 811.392 68.6962C811.392 63.8934 807.499 60 802.696 60C797.893 60 794 63.8934 794 68.6962C794 73.4991 797.893 77.3925 802.696 77.3925Z" fill="white"/>
<path d="M1247.7 259.392C1252.5 259.392 1256.39 255.499 1256.39 250.696C1256.39 245.893 1252.5 242 1247.7 242C1242.89 242 1239 245.893 1239 250.696C1239 255.499 1242.89 259.392 1247.7 259.392Z" fill="white"/>
<path d="M1327.7 97.3925C1332.5 97.3925 1336.39 93.4991 1336.39 88.6962C1336.39 83.8934 1332.5 80 1327.7 80C1322.89 80 1319 83.8934 1319 88.6962C1319 93.4991 1322.89 97.3925 1327.7 97.3925Z" fill="white"/>
<path d="M1433.7 295.392C1438.5 295.392 1442.39 291.499 1442.39 286.696C1442.39 281.893 1438.5 278 1433.7 278C1428.89 278 1425 281.893 1425 286.696C1425 291.499 1428.89 295.392 1433.7 295.392Z" fill="white"/>
<path d="M764.696 236.392C769.499 236.392 773.392 232.499 773.392 227.696C773.392 222.893 769.499 219 764.696 219C759.893 219 756 222.893 756 227.696C756 232.499 759.893 236.392 764.696 236.392Z" fill="white"/>
<path d="M1045.7 145.392C1050.5 145.392 1054.39 141.499 1054.39 136.696C1054.39 131.893 1050.5 128 1045.7 128C1040.89 128 1037 131.893 1037 136.696C1037 141.499 1040.89 145.392 1045.7 145.392Z" fill="white"/>
<path d="M244.696 8.3925C249.499 8.3925 253.392 4.49906 253.392 -0.30375C253.392 -5.10656 249.499 -9 244.696 -9C239.893 -9 236 -5.10656 236 -0.30375C236 4.49906 239.893 8.3925 244.696 8.3925Z" fill="white"/>
<path d="M-0.30375 47.3925C4.49906 47.3925 8.3925 43.4991 8.3925 38.6962C8.3925 33.8934 4.49906 30 -0.30375 30C-5.10656 30 -9 33.8934 -9 38.6962C-9 43.4991 -5.10656 47.3925 -0.30375 47.3925Z" fill="white"/>
<path d="M0.69625 197.392C5.49906 197.392 9.3925 193.499 9.3925 188.696C9.3925 183.893 5.49906 180 0.69625 180C-4.10656 180 -8 183.893 -8 188.696C-8 193.499 -4.10656 197.392 0.69625 197.392Z" fill="white"/>
<path d="M1555.7 198.392C1560.5 198.392 1564.39 194.499 1564.39 189.696C1564.39 184.893 1560.5 181 1555.7 181C1550.89 181 1547 184.893 1547 189.696C1547 194.499 1550.89 198.392 1555.7 198.392Z" fill="white"/>
<path d="M1555.7 48.3925C1560.5 48.3925 1564.39 44.4991 1564.39 39.6962C1564.39 34.8934 1560.5 31 1555.7 31C1550.89 31 1547 34.8934 1547 39.6962C1547 44.4991 1550.89 48.3925 1555.7 48.3925Z" fill="white"/>
<path d="M1045.7 297.392C1050.5 297.392 1054.39 293.499 1054.39 288.696C1054.39 283.893 1050.5 280 1045.7 280C1040.89 280 1037 283.893 1037 288.696C1037 293.499 1040.89 297.392 1045.7 297.392Z" fill="white"/>
</g>
<defs>
<clipPath id="clip0_210_33">
<rect width="1557" height="289" fill="white"/>
</clipPath>
</defs>
</svg>
